<?xml version="1.0" ?><svg viewBox="0 0 64 64" xmlns="http://www.w3.org/2000/svg"><g id="Jellyfish"><path d="M11.67,27.36a3.45,3.45,0,0,0,0,4.87,8.08,8.08,0,0,0,3,1.91c-1.11,2.13-1.91,3.78-1.72,6.2a24,24,0,0,0,.83,4.4l.17.65a3.4,3.4,0,0,1,.16,2,2.59,2.59,0,0,0,.09,2,2.55,2.55,0,0,0,1.45,1.34,2.71,2.71,0,0,0,.88.15,2.57,2.57,0,0,0,2.42-1.69,8.11,8.11,0,0,0,0-5l-.18-.73a19,19,0,0,1-.67-3.49c-.14-1.67.93-2.55,1.89-5.1l1,0,.25,0c.19,2.44.73,4.37-.14,6.89a12.68,12.68,0,0,0,.14,8.48c.31.89.65,1.67.93,2.3l.16.37a8.49,8.49,0,0,1,.4,1,2.57,2.57,0,0,0,5.12-.48,6.94,6.94,0,0,0-.71-2.44l-.25-.56c-.27-.62-.55-1.26-.78-1.93a7.34,7.34,0,0,1-.14-5.1c1.25-3.63.61-6.55.39-9l1.78-.13c.2,3.58,1,4.48.42,7.38-.92,4.78-.69,7.69.81,10.39a3.27,3.27,0,0,1,0,2.37,2.56,2.56,0,0,0-.06,2,2.52,2.52,0,0,0,1.35,1.44,2.47,2.47,0,0,0,1.06.23A2.55,2.55,0,0,0,34,56.51a8.06,8.06,0,0,0-.17-7c-.89-1.58-1-2.8-.26-6.91.72-3.74-.13-5.69-.32-8.37.88,0,1.76.1,2.62.18,0,.52.05,1,.06,1.34a6.51,6.51,0,0,1-.47,3,9,9,0,0,0-.17,4.81c.09.39.18.74.26,1.07a6.58,6.58,0,0,1,.3,1.59c0,1.76-.34,5.73-.34,5.77a2.58,2.58,0,0,0,.59,1.88,2.54,2.54,0,0,0,1.75.91h.22a2.58,2.58,0,0,0,2.56-2.35c0-.17.36-4,.37-6.21a11.18,11.18,0,0,0-.5-3.09c-.07-.25-.13-.48-.18-.7A3.56,3.56,0,0,1,40.5,40a11.19,11.19,0,0,0,.62-4.45c0-.24,0-.52,0-.77l1.36,0-.14.77c0,.28-.11.56-.17.85a18.31,18.31,0,0,0-.52,4.85A53.1,53.1,0,0,0,43,49a2.55,2.55,0,0,0,2.49,2,2.62,2.62,0,0,0,.62-.07,2.57,2.57,0,0,0,1.59-1.16,2.5,2.5,0,0,0,.3-1.94A62.25,62.25,0,0,1,46.75,41a14.42,14.42,0,0,1,.44-3.57l.17-.87A20.29,20.29,0,0,0,47.7,34a7.88,7.88,0,0,0,2.65-1.78,3.43,3.43,0,0,0-2.44-5.86h0c0-.5.06-1,.06-1.41A17,17,0,0,0,14,25c0,.41,0,.91.06,1.41h0A3.43,3.43,0,0,0,11.67,27.36Zm5.14,16.56.18.71a6.37,6.37,0,0,1,.07,3.82.58.58,0,0,1-1.08-.4,5.08,5.08,0,0,0-.1-3.14l-.18-.68a22.59,22.59,0,0,1-.76-4c-.17-2.16.72-3.59,1.69-5.54a10.13,10.13,0,0,0,1.22.14c-.83,1.85-1.94,3.13-1.77,5.31A21.22,21.22,0,0,0,16.81,43.92Zm9.05,9.61a.58.58,0,0,1-1.15.08,7.7,7.7,0,0,0-.54-1.6L24,51.64c-.27-.63-.59-1.34-.87-2.16A10.57,10.57,0,0,1,23,42.32c1-3,.43-5.33.24-7.69l1.14-.1c.25,2.81.78,5.07-.29,8.16a9.36,9.36,0,0,0,.14,6.42c.25.74.55,1.42.84,2.07l.25.56A5.29,5.29,0,0,1,25.86,53.53ZM31.65,42.2c-.83,4.33-.73,6.11.47,8.26a6.17,6.17,0,0,1,.11,5.2.58.58,0,0,1-.76.29.56.56,0,0,1-.3-.32.65.65,0,0,1,0-.49A5.25,5.25,0,0,0,31.12,51c-1.27-2.26-1.43-4.71-.6-9,.64-3.31-.18-4.4-.38-7.83.29,0,.57,0,.86,0h.28C31.47,37.28,32.32,38.72,31.65,42.2Zm6.75.62c.06.25.13.52.21.8A9.29,9.29,0,0,1,39,46.18c0,2.1-.35,6-.36,6a.59.59,0,0,1-.62.53.61.61,0,0,1-.39-.21.56.56,0,0,1-.13-.42c0-.17.34-4.09.35-5.94a8.34,8.34,0,0,0-.36-2.09c-.08-.31-.17-.64-.25-1a6.92,6.92,0,0,1,.09-3.68,8.44,8.44,0,0,0,.6-3.72c0-.28,0-.68,0-1.11l1.15.1c0,.32,0,.66,0,1a9.41,9.41,0,0,1-.49,3.69A5.45,5.45,0,0,0,38.4,42.82ZM46,48.21a.57.57,0,0,1-.07.44.57.57,0,0,1-1-.17,51.71,51.71,0,0,1-1.31-7.29,16.23,16.23,0,0,1,.48-4.34c.06-.29.12-.58.17-.87s.14-.78.2-1.22a11.7,11.7,0,0,0,1.17-.15c-.07.59-.15,1.14-.24,1.59l-.16.85a16,16,0,0,0-.47,4.08A58.86,58.86,0,0,0,46,48.21Zm2.88-19.42a1.48,1.48,0,0,1,.43,1,1.43,1.43,0,0,1-.42,1c-1.86,1.88-4.36,2.15-7.82,2-1.17-.06-2.37-.17-3.64-.28-3.1-.28-6.11-.38-6.47-.38-1.67,0-5.27.27-6.47.38s-2.47.22-3.64.28c-3.45.18-6-.09-7.82-2a1.43,1.43,0,0,1-.42-1,1.48,1.48,0,0,1,.43-1,1.5,1.5,0,0,1,1-.42,1.4,1.4,0,0,1,1,.43c.9.91,2.69,1.26,5.63,1.11,1-.05,2.1-.15,3.27-.26,2.09-.19,4.46-.4,7-.4s4.89.21,7,.4c1.17.11,2.28.21,3.27.26,2.94.15,4.73-.2,5.63-1.11a1.4,1.4,0,0,1,1-.43h0A1.42,1.42,0,0,1,48.92,28.79Zm-3.43-7.47a5.41,5.41,0,0,1-1.78.34,5.28,5.28,0,0,1-4-8.81A15,15,0,0,1,45.49,21.32ZM38,11.76a7.29,7.29,0,0,0,5.67,11.9,7.11,7.11,0,0,0,2.15-.34,14.48,14.48,0,0,1,0,3.78,3.17,3.17,0,0,0-.35.29c-.12.12-.86.69-4.1.53-1-.05-2-.15-3.19-.26-2.14-.19-4.56-.41-7.17-.41s-5,.22-7.17.41c-1.15.11-2.22.21-3.19.26-3.26.16-4-.41-4.1-.53a3.17,3.17,0,0,0-.35-.29,14.79,14.79,0,0,1,.72-7.1,5.77,5.77,0,0,0,2.33.5,5.87,5.87,0,0,0,5-8.89A14.9,14.9,0,0,1,38,11.76Zm-15.48.86a3.83,3.83,0,0,1-4.86,5.52A15.13,15.13,0,0,1,22.56,12.62Z"/><path d="M29.1,25.62a3.4,3.4,0,1,0-3.39-3.39A3.39,3.39,0,0,0,29.1,25.62Zm0-4.79a1.4,1.4,0,1,1-1.39,1.4A1.4,1.4,0,0,1,29.1,20.83Z"/></g></svg>